<?xml version="1.0" standalone="no"?>
<!DOCTYPE svg PUBLIC "-//W3C//DTD SVG 20010904//EN"
 "http://www.w3.org/TR/2001/REC-SVG-20010904/DTD/svg10.dtd">
<svg version="1.0" xmlns="http://www.w3.org/2000/svg"
 width="128.000000pt" height="128.000000pt" viewBox="0 0 128.000000 128.000000"
 preserveAspectRatio="xMidYMid meet">
<metadata>
Created by potrace 1.14, written by Peter Selinger 2001-2017
</metadata>
<g transform="translate(0.000000,128.000000) scale(0.100000,-0.100000)"
fill="#000000" stroke="none">
<path d="M301 1118 c-24 -4 -49 -13 -57 -19 -8 -6 -14 -8 -14 -5 0 11 -59 -33
-93 -68 -31 -32 -74 -115 -84 -163 -12 -52 -5 -191 12 -250 17 -59 69 -167 92
-191 7 -7 13 -17 13 -21 0 -4 35 -43 78 -88 84 -88 148 -135 251 -186 57 -27
77 -32 141 -32 64 0 85 5 145 33 90 43 162 97 252 189 131 134 199 283 205
448 3 56 -24 155 -56 209 -59 102 -147 148 -281 149 -78 0 -99 -3 -145 -25
-30 -14 -69 -40 -86 -57 l-32 -30 -18 21 c-66 73 -196 108 -323 86z"/>
</g>
</svg>
